. 
  
http://www.torrentday.com/        :     The Hottest Private Tracker On The Net!!!
 
http://www.torrentday.com          :     Once & For all ;)


               www . TorrentDay . Com 

(((((((((((((= Enjoy No RAR releases =))))))))))))))))))))


...................................NFO:....................................

.[img]http://img444.imageshack.us/img444/1787/fairpw.jpg[/img]

Fair Game 2010 720P Bluray x264 Hive-CM8



[b]Thx Hive

CM8 Doing It Right The First Time :D

Dvdscr was released yesterday!
Official Bluraydate will be 29.4.2011!
Now here it is:

VideoSource: Foreign Bluray  
            Thx      
AudioSource: INKs DVDSCR Audio
            thx


Video: 1280x524 @bitrate 4000 2pass
Audio: English AC3 5.1 @448
Sample: yes included
Subs: yes own hardcoded for the foreign parts, english subs taken 1:1 from DVDScr[/b]
 
http://www.imdb.com/title/tt0977855/


General
Complete name                    : Fair.Game.2010.720P.Bluray.x264.Hive-CM8.mkv
Format                           : Matroska
File size                        : 3.34 GiB
Duration                         : 1h 47mn
Overall bit rate                 : 4 450 Kbps
Encoded date                     : UTC 2011-01-30 00:29:34
Writing application              : mkvmerge v3.3.0 ('Language') built on Mar 24 2010 14:59:24
Writing library                  : libebml v0.8.0 + libmatroska v0.9.0

Video
ID                               : 1
Format                           : AVC
Format/Info                      : Advanced Video Codec
Format profile                   : High@L3.1
Format settings, CABAC           : Yes
Format settings, ReFrames        : 5 frames
Muxing mode                      : Container profile=Unknown@3.1
Codec ID                         : V_MPEG4/ISO/AVC
Duration                         : 1h 47mn
Bit rate                         : 3 913 Kbps
Width                            : 1 280 pixels
Height                           : 528 pixels
Display aspect ratio             : 2.35:1
Frame rate                       : 24.000 fps
Color space                      : YUV
Chroma subsampling               : 4:2:0
Bit depth                        : 8 bits
Scan type                        : Progressive
Bits/(Pixel*Frame)               : 0.241
Stream size                      : 2.93 GiB (88%)
Language                         : English

Audio
ID                               : 2
Format                           : AC-3
Format/Info                      : Audio Coding 3
Mode extension                   : CM (complete main)
Codec ID                         : A_AC3
Duration                         : 1h 47mn
Bit rate mode                    : Constant
Bit rate                         : 448 Kbps
Channel(s)                       : 6 channels
Channel positions                : Front: L C R, Side: L R, LFE
Sampling rate                    : 48.0 KHz
Bit depth                        : 16 bits
Stream size                      : 344 MiB (10%)





Naomi Watts - Valerie Plame
Sean Penn - Joe Wilson
Tom McCarthy - Jeff
Ty Burrell - Fred
Jessica Hecht - Sue
Anand Tiwari - Hafiz
Rebecca Rigg - Lisa
Brooke Smith - Diana



Plame's status as a CIA agent was revealed by White House officials allegedly 
out to discredit her husband after he wrote a 2003 New York Times op-ed piece 
saying that the Bush administration had manipulated intelligence about weapons 
of mass destruction to justify the invasion of Iraq. 



[img]http://img26.imageshack.us/img26/5425/fg7b.png[/img]
[img]http://img828.imageshack.us/img828/9018/fg7fg7.png[/img]
[img]http://img41.imageshack.us/img41/3776/fg7fg7fg7.png[/img]





Greetz

iNK,LUSi,,MAGNET,CLASSiFiED,THC,LEGi0N,T0XiC,IMAGiNE,ViSiON,WBZ,FLAWL3SS,NOVA
Vik,Rapeseed,D2U,SAFC,goldadvance,MEMORY100,KaN1vE,Unevano,Pinnz,Wayne,Mr Hive
and all P2P groups 
Great Work Guys :D